<?xml version="1.0" encoding="UTF-8" standalone="no"?>
<!-- Created with Inkscape (http://www.inkscape.org/) -->

<svg
   xmlns:dc="http://purl.org/dc/elements/1.1/"
   xmlns:cc="http://creativecommons.org/ns#"
   xmlns:rdf="http://www.w3.org/1999/02/22-rdf-syntax-ns#"
   xmlns:svg="http://www.w3.org/2000/svg"
   xmlns="http://www.w3.org/2000/svg"
   xmlns:sodipodi="http://sodipodi.sourceforge.net/DTD/sodipodi-0.dtd"
   xmlns:inkscape="http://www.inkscape.org/namespaces/inkscape"
   width="485"
   height="245"
   id="svg2"
   version="1.1"
   inkscape:version="0.48.0 r9654"
   sodipodi:docname="Phillyskyline.svg"
   style="display:inline">
  <defs
     id="defs4" />
  <sodipodi:namedview
     id="base"
     pagecolor="#ffffff"
     bordercolor="#666666"
     borderopacity="1.0"
     inkscape:pageopacity="0.0"
     inkscape:pageshadow="2"
     inkscape:zoom="1.3759119"
     inkscape:cx="260.58299"
     inkscape:cy="196.12561"
     inkscape:document-units="px"
     inkscape:current-layer="layer2"
     showgrid="false"
     inkscape:window-width="1440"
     inkscape:window-height="820"
     inkscape:window-x="-8"
     inkscape:window-y="-8"
     inkscape:window-maximized="1" />
  <metadata
     id="metadata7">
    <rdf:RDF>
      <cc:Work
         rdf:about="">
        <dc:format>image/svg+xml</dc:format>
        <dc:type
           rdf:resource="http://purl.org/dc/dcmitype/StillImage" />
        <dc:title></dc:title>
      </cc:Work>
    </rdf:RDF>
  </metadata>
  <g
     inkscape:groupmode="layer"
     id="layer2"
     inkscape:label="Warstwa"
     transform="translate(0,70)">
    <path
       inkscape:connector-curvature="0"
       id="path4193"
       d="m 5.3961456,119.23983 10.2783724,0 0,-16.4454 7.45182,0 0,-20.04282 5.653105,0 0,-29.55033 4.625268,0 0,-11.30621 3.59743,0 0,-10.02141 3.85439,0 0,-7.451818 4.882227,0 0,-4.625268 9.507495,0 0,4.625268 4.882227,0 0,7.451818 3.85439,0 0,10.02141 3.59743,0 0,11.30621 4.625268,0 0,29.55033 5.653105,0 0,20.04282 7.45182,0 0,16.4454 13.618843,0 0,8.8651 6.423984,0 0,-12.46253 9.50749,0 0,-42.01285 1.17522,0.314899 0,-16.631815 4.4231,-4.423098 0,-18.060842 21.901,-15.725298 0,-7.631303 2.90716,-2.9071625 3.13207,3.1320695 0,7.521415 22.28587,15.995718 0,17.957577 5.14282,5.142829 0,15.186532 0.99201,0.265808 0,42.004001 8.96152,0 0,12.33405 24.80602,0 0,-52.130162 8.99404,-8.994035"
       style="color:#000000;fill:none;stroke:#69626D;stroke-width:1;marker:none;visibility:visible;display:inline;overflow:visible;enable-background:accumulate"
       sodipodi:nodetypes="cccccccccccccccccccccccccccccc" />
    <path
       style="color:#000000;fill:none;stroke:#69626D;stroke-width:4;stroke-linecap:round;stroke-linejoin:round;stroke-miterlimit:4;stroke-opacity:1;stroke-dasharray:none;stroke-dashoffset:0;marker:none;visibility:visible;display:inline;overflow:visible;enable-background:accumulate"
       d="m 122.05567,128.59743 23.44754,-23.44754 24.53962,24.53962"
       id="path4195"
       inkscape:connector-curvature="0"
       transform="translate(0,-70)" />
    <path
       style="color:#000000;fill:none;stroke:#69626D;stroke-width:4;stroke-linecap:round;stroke-linejoin:round;stroke-miterlimit:4;stroke-opacity:1;stroke-dasharray:none;stroke-dashoffset:0;marker:none;visibility:visible;display:inline;overflow:visible;enable-background:accumulate"
       d="m 130.37473,68.2334 15.4818,-15.48179 15.86724,15.86723"
       id="path4197"
       inkscape:connector-curvature="0" />
    <path
       style="color:#000000;fill:none;stroke:#69626D;stroke-width:1;stroke-linecap:round;stroke-linejoin:round;stroke-miterlimit:4;stroke-opacity:1;stroke-dasharray:none;stroke-dashoffset:0;marker:none;visibility:visible;display:inline;overflow:visible;enable-background:accumulate"
       d="m 219.70021,125.89936 6.48823,-6.48823"
       id="path4199"
       inkscape:connector-curvature="0"
       transform="translate(0,-70)" />
    <path
       style="color:#000000;fill:none;stroke:#69626D;stroke-width:1;stroke-linecap:round;stroke-linejoin:round;stroke-miterlimit:4;stroke-opacity:1;stroke-dasharray:none;stroke-dashoffset:0;marker:none;visibility:visible;display:inline;overflow:visible;enable-background:accumulate"
       d="m 226.50964,106.75589 6.55246,-6.55246"
       id="path4201"
       inkscape:connector-curvature="0"
       transform="translate(0,-70)" />
    <path
       style="color:#000000;fill:none;stroke:#69626D;stroke-width:1;stroke-linecap:round;stroke-linejoin:round;stroke-miterlimit:4;stroke-opacity:1;stroke-dasharray:none;stroke-dashoffset:0;marker:none;visibility:visible;display:inline;overflow:visible;enable-background:accumulate"
       d="m 233.83298,88.511777 7.45182,-7.45182 c 0.52895,-3.110711 0.78141,-6.193773 4.62526,-9.635974 l 1.9272,-55.117773 2.69807,55.117773 c 2.91688,2.832003 3.04649,6.484334 3.72591,9.635974 l 7.83726,8.479657"
       id="path4203"
       inkscape:connector-curvature="0"
       transform="translate(0,-70)"
       sodipodi:nodetypes="ccccccc" />
    <path
       inkscape:connector-curvature="0"
       id="path4205"
       d="m 275.97431,55.89936 -6.48823,-6.48823"
       style="color:#000000;fill:none;stroke:#69626D;stroke-width:1;stroke-linecap:round;stroke-linejoin:round;stroke-miterlimit:4;stroke-opacity:1;stroke-dasharray:none;stroke-dashoffset:0;marker:none;visibility:visible;display:inline;overflow:visible;enable-background:accumulate" />
    <path
       inkscape:connector-curvature="0"
       id="path4207"
       d="m 269.16488,36.75589 -6.55246,-6.55246"
       style="color:#000000;fill:none;stroke:#69626D;stroke-width:1;stroke-linecap:round;stroke-linejoin:round;stroke-miterlimit:4;stroke-opacity:1;stroke-dasharray:none;stroke-dashoffset:0;marker:none;visibility:visible;display:inline;overflow:visible;enable-background:accumulate" />
    <path
       style="font-size:medium;font-style:normal;font-variant:normal;font-weight:normal;font-stretch:normal;text-indent:0;text-align:start;text-decoration:none;line-height:normal;letter-spacing:normal;word-spacing:normal;text-transform:none;direction:ltr;block-progression:tb;writing-mode:lr-tb;text-anchor:start;baseline-shift:baseline;color:#000000;fill:#69626D;fill-opacity:1;stroke:none;stroke-width:4;marker:none;visibility:visible;display:inline;overflow:visible;enable-background:accumulate;font-family:Sans;-inkscape-font-specification:Sans"
       d="m 248.375,71.40625 -1.40625,1.4375 -13.71875,13.71875 -1.40625,1.40625 5.21992,-0.0446 L 248.375,77.0625 c 4.46519,4.503374 6.52943,6.15699 10.96427,10.690377 L 264.65625,87.6875 263.25,86.28125 249.78125,72.84375 z"
       id="path4209"
       inkscape:connector-curvature="0"
       sodipodi:nodetypes="ccccccccccc" />
    <path
       style="color:#000000;fill:none;stroke:#69626D;stroke-width:4;stroke-linecap:square;stroke-linejoin:miter;stroke-miterlimit:4;stroke-opacity:1;stroke-dasharray:none;stroke-dashoffset:0;marker:none;visibility:visible;display:inline;overflow:visible;enable-background:accumulate"
       d="m 219.95717,126.15632 0,30.19272 28.20129,-28.20129 28.20128,28.20129 0,-30.19272"
       id="path4215"
       inkscape:connector-curvature="0"
       transform="translate(0,-70)"
       sodipodi:nodetypes="ccccc" />
    <path
       sodipodi:nodetypes="ccccc"
       inkscape:connector-curvature="0"
       id="path4217"
       d="m 227.15203,37.780802 0,22.489794 21.00643,-21.006428 21.00642,21.006428 0,-22.489794"
       style="color:#000000;fill:none;stroke:#69626D;stroke-width:4;stroke-linecap:square;stroke-linejoin:miter;stroke-miterlimit:4;stroke-opacity:1;stroke-dasharray:none;stroke-dashoffset:0;marker:none;visibility:visible;display:inline;overflow:visible;enable-background:accumulate" />
    <path
       style="color:#000000;fill:none;stroke:#69626D;stroke-width:4;stroke-linecap:square;stroke-linejoin:miter;stroke-miterlimit:4;stroke-opacity:1;stroke-dasharray:none;stroke-dashoffset:0;marker:none;visibility:visible;display:inline;overflow:visible;enable-background:accumulate"
       d="m 233.86249,20.17909 0,14.830978 14.039,-13.852767 14.039,13.852767 0,-14.830978"
       id="path4219"
       inkscape:connector-curvature="0"
       sodipodi:nodetypes="ccccc" />
    <path
       style="color:#000000;fill:none;stroke:#69626D;stroke-width:1;stroke-linecap:square;stroke-linejoin:miter;stroke-miterlimit:4;stroke-opacity:1;stroke-dasharray:none;stroke-dashoffset:0;marker:none;visibility:visible;display:inline;overflow:visible;enable-background:accumulate"
       d="m 243.59743,17.012848 4.30407,-1.413277 2.37687,-3.40471"
       id="path4221"
       inkscape:connector-curvature="0"
       transform="translate(0,-70)" />
    <path
       style="color:#000000;fill:none;stroke:#69626D;stroke-width:1;stroke-linecap:square;stroke-linejoin:miter;stroke-miterlimit:4;stroke-opacity:1;stroke-dasharray:none;stroke-dashoffset:0;marker:none;visibility:visible;display:inline;overflow:visible;enable-background:accumulate"
       d="m 247.70878,15.856531 0,-5.717345"
       id="path4223"
       inkscape:connector-curvature="0"
       transform="translate(0,-70)" />
    <path
       inkscape:connector-curvature="0"
       id="path4225"
       d="m 252.01285,-52.987152 -4.30407,-1.413277 -2.37687,-3.40471"
       style="color:#000000;fill:none;stroke:#69626D;stroke-width:1;stroke-linecap:square;stroke-linejoin:miter;stroke-miterlimit:4;stroke-opacity:1;stroke-dasharray:none;stroke-dashoffset:0;marker:none;visibility:visible;display:inline;overflow:visible;enable-background:accumulate" />
    <path
       style="color:#000000;fill:none;stroke:#69626D;stroke-width:1;stroke-linecap:square;stroke-linejoin:miter;stroke-miterlimit:4;stroke-opacity:1;stroke-dasharray:none;stroke-dashoffset:0;marker:none;visibility:visible;display:inline;overflow:visible;enable-background:accumulate"
       d="m 277.38758,138.2334 8.28694,8.28694 0,33.72591 74.32548,0 0,-32.63383 8.47966,0 0,-16.4454 6.42398,0 17.85867,-26.46681 2.69808,0 17.85867,27.23769 6.2955,0 0,16.05996 8.99358,0 0,69.50749 8.2227,0 0,9.76446 4.62526,0 c 0.79341,-4.75343 1.49981,-9.53172 4.62527,-13.61885 l -0.86954,-3.24518 c 0.21403,-5.32996 1.76903,-9.36915 4.72393,-11.27302 l 0,-8.50218 6.86995,-11.93599 4.35155,0 6.91254,11.93599 0,8.50218 c 4.00008,3.06164 4.30658,7.95114 4.47838,11.69165 l -1.02784,3.59743 c 2.47858,4.79657 3.58744,9.59315 4.36831,14.38972 l 0,8.73662"
       id="path4227"
       inkscape:connector-curvature="0"
       transform="translate(0,-70)"
       sodipodi:nodetypes="cccccccccccccccccccccccccccccc" />
    <path
       style="color:#000000;fill:none;stroke:#69626D;stroke-width:1;stroke-linecap:square;stroke-linejoin:miter;stroke-miterlimit:4;stroke-opacity:1;stroke-dasharray:none;stroke-dashoffset:0;marker:none;visibility:visible;display:inline;overflow:visible;enable-background:accumulate"
       d="m 360.21564,110.22478 34.15917,0"
       id="path4229"
       inkscape:connector-curvature="0" />
    <path
       style="color:#000000;fill:#69626D;fill-opacity:1;stroke:none;stroke-width:1;marker:none;visibility:visible;display:inline;overflow:visible;enable-background:accumulate"
       d="m 458.17382,108.77199 c -3.06512,-2.58336 -0.37122,-6.18962 -1.09912,-8.61607 -0.26322,-0.8774 -1.82429,-1.26319 -1.32073,-2.60609 0.34055,-0.90816 2.60389,-2.06072 2.27803,-2.71246 -0.0889,-0.17778 -0.52325,-0.11538 -0.68252,-0.19502 -0.66148,-0.33075 -0.41018,-1.13706 -0.79776,-1.52465 -0.22212,-0.22214 -0.82459,-0.24845 -1.07253,-0.4964 -0.0717,-0.0717 1.55944,-0.75774 1.63096,-0.94848 0.22473,-0.5993 2.12008,-0.91141 2.72122,-0.31024 0.14017,0.14018 0.067,0.58589 0.29251,0.68254 0.41708,0.17876 1.02813,-0.20396 1.3739,0.14183 0.21744,0.21745 -0.80611,0.57468 -0.81548,0.60277 -0.0953,0.28594 0.19981,0.56658 0.0709,0.82438 -0.34808,0.69619 -1.99926,2.74869 -0.80661,3.64321 0.3674,0.27556 2.70118,-3.48827 3.43919,-2.01219 0.11,0.21999 -2.74781,2.77389 -2.74781,3.98006 0,2.0161 -0.49816,3.6137 -1.00162,5.29196 -0.5502,1.83409 1.77879,2.30899 0.64707,4.00665 -0.44245,0.6637 -1.47538,0.0859 -2.10961,0.2482 z"
       id="path4231"
       inkscape:connector-curvature="0" />
    <text
       xml:space="preserve"
       style="font-size:18.62087059px;font-style:normal;font-variant:normal;font-weight:normal;font-stretch:normal;text-align:start;text-anchor:start;color:#000000;fill:#69626D;fill-opacity:1;fill-rule:nonzero;stroke:none;stroke-width:1;marker:none;visibility:visible;display:inline;overflow:visible;enable-background:accumulate;font-family:Arial;-inkscape-font-specification:Arial"
       x="346.67029"
       y="101.35529"
       id="text4233"
       transform="scale(0.9310435,1.0740637)"><tspan
         sodipodi:role="line"
         id="tspan4235"
         x="346.67029"
         y="101.35529">P  S  F  S</tspan></text>
  </g>
</svg>
